# xmcd
#
# Track frame offsets:
#	150
#	15314
#	28534
#	45399
#	57296
#	72973
#	85653
#	104732
#	117682
#	143214
#
# Disc length: 2155 seconds
#
# Revision: 0
# Processed by: cddbd v1.5PL3 Copyright (c) Steve Scherf et al.
# Submitted via: dBpowerAMP V4.0
#
DISCID=8308690a
DTITLE=Kenneth Brian - Ride
DYEAR=2003
DGENRE=Country
TTITLE0=Jukebox
TTITLE1=Wide Open Spaces
TTITLE2=Closin Time Love Affair
TTITLE3=Road to Run
TTITLE4=349
TTITLE5=My Way
TTITLE6=Ride
TTITLE7=When You Were Mine
TTITLE8=Blood Runs Deep
TTITLE9=Wildcat Daddy
EXTD=
EXTT0=
EXTT1=
EXTT2=
EXTT3=
EXTT4=
EXTT5=
EXTT6=
EXTT7=
EXTT8=
EXTT9=
PLAYORDER=
